<?xml version="1.0" encoding="UTF-8" standalone="no"?>
<!DOCTYPE svg PUBLIC "-//W3C//DTD SVG 1.1//EN" "http://www.w3.org/Graphics/SVG/1.1/DTD/svg11.dtd">
<svg xmlns:xl="http://www.w3.org/1999/xlink" xmlns="http://www.w3.org/2000/svg" xmlns:dc="http://purl.org/dc/elements/1.1/" version="1.1" viewBox="81.5 27.5 846.5368 400.5392" width="846.5368" height="400.5392">
  <defs>
    <filter id="Shadow" filterUnits="userSpaceOnUse" x="-3.1536765" y="-12.553922">
      <feGaussianBlur in="SourceAlpha" result="blur" stdDeviation="1.3030978"/>
      <feOffset in="blur" result="offset" dx="0" dy="2"/>
      <feFlood flood-color="black" flood-opacity=".2" result="flood"/>
      <feComposite in="flood" in2="offset" operator="in" result="color"/>
      <feMerge>
        <feMergeNode in="color"/>
        <feMergeNode in="SourceGraphic"/>
      </feMerge>
    </filter>
  </defs>
  <g id="Flex_K8s_Components" fill-opacity="1" stroke="none" stroke-dasharray="none" stroke-opacity="1" fill="none">
    <title>Flex K8s Components</title>
    <rect x="81.5" y="27.5" width="846.5368" height="400.5392"/>
    <g id="Flex_K8s_Components_Layer_1">
      <title>Layer 1</title>
      <g id="Graphic_24" filter="url(#Shadow)">
        <path d="M 190.125 312.5392 L 916.5368 312.5392 C 921.5073 312.5392 925.5368 316.56865 925.5368 321.5392 L 925.5368 353.5392 C 925.5368 358.50978 921.5073 362.5392 916.5368 362.5392 L 190.125 362.5392 C 185.15444 362.5392 181.125 358.50978 181.125 353.5392 L 181.125 321.5392 C 181.125 316.56865 185.15444 312.5392 190.125 312.5392 Z" fill="#ffff80"/>
        <path d="M 190.125 312.5392 L 916.5368 312.5392 C 921.5073 312.5392 925.5368 316.56865 925.5368 321.5392 L 925.5368 353.5392 C 925.5368 358.50978 921.5073 362.5392 916.5368 362.5392 L 190.125 362.5392 C 185.15444 362.5392 181.125 358.50978 181.125 353.5392 L 181.125 321.5392 C 181.125 316.56865 185.15444 312.5392 190.125 312.5392 Z" stroke="black" stroke-linecap="round" stroke-linejoin="round" stroke-width="1"/>
        <text transform="translate(186.125 326.5392)" fill="black">
          <tspan font-family="Helvetica" font-size="18" fill="black" x="295.1751" y="18">Operating System</tspan>
        </text>
      </g>
      <g id="Graphic_23" filter="url(#Shadow)">
        <path d="M 620.01716 250.66422 L 720.51716 250.66422 C 725.4877 250.66422 729.5172 254.69365 729.5172 259.66422 L 729.5172 291.6642 C 729.5172 296.63478 725.4877 300.6642 720.51716 300.6642 L 620.01716 300.6642 C 615.0466 300.6642 611.01716 296.63478 611.01716 291.6642 L 611.01716 259.66422 C 611.01716 254.69365 615.0466 250.66422 620.01716 250.66422 Z" fill="#203dd7" fill-opacity=".8"/>
        <path d="M 620.01716 250.66422 L 720.51716 250.66422 C 725.4877 250.66422 729.5172 254.69365 729.5172 259.66422 L 729.5172 291.6642 C 729.5172 296.63478 725.4877 300.6642 720.51716 300.6642 L 620.01716 300.6642 C 615.0466 300.6642 611.01716 296.63478 611.01716 291.6642 L 611.01716 259.66422 C 611.01716 254.69365 615.0466 250.66422 620.01716 250.66422 Z" stroke="black" stroke-linecap="round" stroke-linejoin="round" stroke-width="1"/>
        <text transform="translate(616.01716 264.6642)" fill="black">
          <tspan font-family="Helvetica" font-size="18" fill="black" x="35.243652" y="18">OVS</tspan>
        </text>
      </g>
      <g id="Graphic_22" filter="url(#Shadow)">
        <path d="M 496.0049 250.91422 L 596.5049 250.91422 C 601.4755 250.91422 605.5049 254.94365 605.5049 259.91422 L 605.5049 291.9142 C 605.5049 296.88478 601.4755 300.9142 596.5049 300.9142 L 496.0049 300.9142 C 491.03434 300.9142 487.0049 296.88478 487.0049 291.9142 L 487.0049 259.91422 C 487.0049 254.94365 491.03434 250.91422 496.0049 250.91422 Z" fill="#203dd7" fill-opacity=".8"/>
        <path d="M 496.0049 250.91422 L 596.5049 250.91422 C 601.4755 250.91422 605.5049 254.94365 605.5049 259.91422 L 605.5049 291.9142 C 605.5049 296.88478 601.4755 300.9142 596.5049 300.9142 L 496.0049 300.9142 C 491.03434 300.9142 487.0049 296.88478 487.0049 291.9142 L 487.0049 259.91422 C 487.0049 254.94365 491.03434 250.91422 496.0049 250.91422 Z" stroke="black" stroke-linecap="round" stroke-linejoin="round" stroke-width="1"/>
        <text transform="translate(492.0049 264.9142)" fill="black">
          <tspan font-family="Helvetica" font-size="18" fill="black" x="12.220703" y="18">containerd</tspan>
        </text>
      </g>
      <g id="Graphic_21" filter="url(#Shadow)">
        <path d="M 247 250.66422 L 347.5 250.66422 C 352.47056 250.66422 356.5 254.69365 356.5 259.66422 L 356.5 291.6642 C 356.5 296.63478 352.47056 300.6642 347.5 300.6642 L 247 300.6642 C 242.02944 300.6642 238 296.63478 238 291.6642 L 238 259.66422 C 238 254.69365 242.02944 250.66422 247 250.66422 Z" fill="#203dd7" fill-opacity=".8"/>
        <path d="M 247 250.66422 L 347.5 250.66422 C 352.47056 250.66422 356.5 254.69365 356.5 259.66422 L 356.5 291.6642 C 356.5 296.63478 352.47056 300.6642 347.5 300.6642 L 247 300.6642 C 242.02944 300.6642 238 296.63478 238 291.6642 L 238 259.66422 C 238 254.69365 242.02944 250.66422 247 250.66422 Z" stroke="black" stroke-linecap="round" stroke-linejoin="round" stroke-width="1"/>
        <text transform="translate(243 264.6642)" fill="black">
          <tspan font-family="Helvetica" font-size="18" fill="black" x="25.228516" y="18">kubelet</tspan>
        </text>
      </g>
      <g id="Graphic_20" filter="url(#Shadow)">
        <path d="M 131.125 28 L 162.75 28 C 167.72056 28 171.75 32.029437 171.75 37 L 171.75 230.03922 C 171.75 235.00978 167.72056 239.03922 162.75 239.03922 L 131.125 239.03922 C 126.15444 239.03922 122.125 235.00978 122.125 230.03922 L 122.125 37 C 122.125 32.029437 126.15444 28 131.125 28 Z" fill="#203dd7" fill-opacity=".8"/>
        <path d="M 131.125 28 L 162.75 28 C 167.72056 28 171.75 32.029437 171.75 37 L 171.75 230.03922 C 171.75 235.00978 167.72056 239.03922 162.75 239.03922 L 131.125 239.03922 C 126.15444 239.03922 122.125 235.00978 122.125 230.03922 L 122.125 37 C 122.125 32.029437 126.15444 28 131.125 28 Z" stroke="black" stroke-linecap="round" stroke-linejoin="round" stroke-width="1"/>
        <text transform="translate(124.9375 196.06697) rotate(-90)" fill="black">
          <tspan font-family="Helvetica" font-size="18" fill="black" x="27.52295" y="18">Exposed</tspan>
          <tspan font-family="Helvetica" font-size="18" fill="black" x="0" y="40">Kubernetes API</tspan>
        </text>
      </g>
      <g id="Graphic_19" filter="url(#Shadow)">
        <path d="M 93 28 L 103.75 28 C 108.72056 28 112.75 32.029437 112.75 37 L 112.75 230.03922 C 112.75 235.00978 108.72056 239.03922 103.75 239.03922 L 93 239.03922 C 88.02944 239.03922 84 235.00978 84 230.03922 L 84 37 C 84 32.029437 88.02944 28 93 28 Z" fill="blue" fill-opacity=".8"/>
        <path d="M 93 28 L 103.75 28 C 108.72056 28 112.75 32.029437 112.75 37 L 112.75 230.03922 C 112.75 235.00978 108.72056 239.03922 103.75 239.03922 L 93 239.03922 C 88.02944 239.03922 84 235.00978 84 230.03922 L 84 37 C 84 32.029437 88.02944 28 93 28 Z" stroke="black" stroke-linecap="round" stroke-linejoin="round" stroke-width="1"/>
        <text transform="translate(87.375 229.57967) rotate(-90)" fill="white">
          <tspan font-family="Helvetica" font-size="18" fill="white" x="0" y="18">LoadBalancer / MetalLB</tspan>
        </text>
      </g>
      <g id="Graphic_18" filter="url(#Shadow)">
        <path d="M 371.99265 250.66422 L 472.49265 250.66422 C 477.4632 250.66422 481.49265 254.69365 481.49265 259.66422 L 481.49265 291.6642 C 481.49265 296.63478 477.4632 300.6642 472.49265 300.6642 L 371.99265 300.6642 C 367.0221 300.6642 362.99265 296.63478 362.99265 291.6642 L 362.99265 259.66422 C 362.99265 254.69365 367.0221 250.66422 371.99265 250.66422 Z" fill="#9a9a9a" fill-opacity=".8"/>
        <path d="M 371.99265 250.66422 L 472.49265 250.66422 C 477.4632 250.66422 481.49265 254.69365 481.49265 259.66422 L 481.49265 291.6642 C 481.49265 296.63478 477.4632 300.6642 472.49265 300.6642 L 371.99265 300.6642 C 367.0221 300.6642 362.99265 296.63478 362.99265 291.6642 L 362.99265 259.66422 C 362.99265 254.69365 367.0221 250.66422 371.99265 250.66422 Z" stroke="black" stroke-linecap="round" stroke-linejoin="round" stroke-width="1"/>
        <text transform="translate(367.99265 264.6642)" fill="black">
          <tspan font-family="Helvetica" font-size="18" fill="black" x="37.23877" y="18">etcd</tspan>
        </text>
      </g>
      <g id="Graphic_17" filter="url(#Shadow)">
        <path d="M 190.125 189.03922 L 916.5368 189.03922 C 921.5073 189.03922 925.5368 193.06865 925.5368 198.03922 L 925.5368 230.03922 C 925.5368 235.00978 921.5073 239.03922 916.5368 239.03922 L 190.125 239.03922 C 185.15444 239.03922 181.125 235.00978 181.125 230.03922 L 181.125 198.03922 C 181.125 193.06865 185.15444 189.03922 190.125 189.03922 Z" fill="#40ff40" fill-opacity=".8"/>
        <path d="M 190.125 189.03922 L 916.5368 189.03922 C 921.5073 189.03922 925.5368 193.06865 925.5368 198.03922 L 925.5368 230.03922 C 925.5368 235.00978 921.5073 239.03922 916.5368 239.03922 L 190.125 239.03922 C 185.15444 239.03922 181.125 235.00978 181.125 230.03922 L 181.125 198.03922 C 181.125 193.06865 185.15444 189.03922 190.125 189.03922 Z" stroke="black" stroke-linecap="round" stroke-linejoin="round" stroke-width="1"/>
        <text transform="translate(186.125 203.03922)" fill="black">
          <tspan font-family="Helvetica" font-size="18" fill="black" x="233.64288" y="18">CNCF Kubernetes and Operators</tspan>
        </text>
      </g>
      <g id="Graphic_16" filter="url(#Shadow)">
        <path d="M 745.9902 250.91422 L 846.4902 250.91422 C 851.4608 250.91422 855.4902 254.94365 855.4902 259.91422 L 855.4902 291.9142 C 855.4902 296.88478 851.4608 300.9142 846.4902 300.9142 L 745.9902 300.9142 C 741.0196 300.9142 736.9902 296.88478 736.9902 291.9142 L 736.9902 259.91422 C 736.9902 254.94365 741.0196 250.91422 745.9902 250.91422 Z" fill="#203dd7" fill-opacity=".8"/>
        <path d="M 745.9902 250.91422 L 846.4902 250.91422 C 851.4608 250.91422 855.4902 254.94365 855.4902 259.91422 L 855.4902 291.9142 C 855.4902 296.88478 851.4608 300.9142 846.4902 300.9142 L 745.9902 300.9142 C 741.0196 300.9142 736.9902 296.88478 736.9902 291.9142 L 736.9902 259.91422 C 736.9902 254.94365 741.0196 250.91422 745.9902 250.91422 Z" stroke="black" stroke-linecap="round" stroke-linejoin="round" stroke-width="1"/>
        <text transform="translate(741.9902 256.91422)" fill="black">
          <tspan font-family="Helvetica" font-size="16" fill="black" x="16.445312" y="15">Local Path</tspan>
          <tspan font-family="Helvetica" font-size="16" fill="black" x="14.234375" y="34">Provisioner</tspan>
        </text>
      </g>
      <g id="Graphic_15" filter="url(#Shadow)">
        <path d="M 190.125 373.5392 L 541.1016 373.5392 C 546.07217 373.5392 550.1016 377.56865 550.1016 382.5392 L 550.1016 414.5392 C 550.1016 419.5098 546.07217 423.5392 541.1016 423.5392 L 190.125 423.5392 C 185.15444 423.5392 181.125 419.5098 181.125 414.5392 L 181.125 382.5392 C 181.125 377.56865 185.15444 373.5392 190.125 373.5392 Z" fill="#c0c0ff"/>
        <path d="M 190.125 373.5392 L 541.1016 373.5392 C 546.07217 373.5392 550.1016 377.56865 550.1016 382.5392 L 550.1016 414.5392 C 550.1016 419.5098 546.07217 423.5392 541.1016 423.5392 L 190.125 423.5392 C 185.15444 423.5392 181.125 419.5098 181.125 414.5392 L 181.125 382.5392 C 181.125 377.56865 185.15444 373.5392 190.125 373.5392 Z" stroke="black" stroke-linecap="round" stroke-linejoin="round" stroke-width="1"/>
        <text transform="translate(186.125 387.5392)" fill="black">
          <tspan font-family="Helvetica" font-size="18" fill="black" x="43.41603" y="18">AMD Servers</tspan>
        </text>
      </g>
      <g id="Graphic_14" filter="url(#Shadow)">
        <path d="M 564.6116 373.5392 L 915.5882 373.5392 C 920.5588 373.5392 924.5882 377.56865 924.5882 382.5392 L 924.5882 414.5392 C 924.5882 419.5098 920.5588 423.5392 915.5882 423.5392 L 564.6116 423.5392 C 559.6411 423.5392 555.6116 419.5098 555.6116 414.5392 L 555.6116 382.5392 C 555.6116 377.56865 559.6411 373.5392 564.6116 373.5392 Z" fill="#c0c0ff"/>
        <path d="M 564.6116 373.5392 L 915.5882 373.5392 C 920.5588 373.5392 924.5882 377.56865 924.5882 382.5392 L 924.5882 414.5392 C 924.5882 419.5098 920.5588 423.5392 915.5882 423.5392 L 564.6116 423.5392 C 559.6411 423.5392 555.6116 419.5098 555.6116 414.5392 L 555.6116 382.5392 C 555.6116 377.56865 559.6411 373.5392 564.6116 373.5392 Z" stroke="black" stroke-linecap="round" stroke-linejoin="round" stroke-width="1"/>
        <text transform="translate(560.6116 387.5392)" fill="black">
          <tspan font-family="Helvetica" font-size="18" fill="black" x="104.95705" y="18">Intel Servers</tspan>
        </text>
      </g>
      <g id="Group_3">
        <g id="Graphic_12" filter="url(#Shadow)">
          <path d="M 185.58088 28 L 912.0809 28 C 917.0514 28 921.0809 32.029437 921.0809 37 L 921.0809 167.53922 C 921.0809 172.50978 917.0514 176.53922 912.0809 176.53922 L 194.58088 176.53922 C 189.61032 176.53922 185.58088 172.50978 185.58088 167.53922 Z" fill="white"/>
          <path d="M 185.58088 28 L 912.0809 28 C 917.0514 28 921.0809 32.029437 921.0809 37 L 921.0809 167.53922 C 921.0809 172.50978 917.0514 176.53922 912.0809 176.53922 L 194.58088 176.53922 C 189.61032 176.53922 185.58088 172.50978 185.58088 167.53922 Z" stroke="black" stroke-linecap="round" stroke-linejoin="round" stroke-width="1"/>
          <text transform="translate(190.58088 33)" fill="black">
            <tspan font-family="Helvetica" font-size="18" fill="black" x="248.67236" y="18">Kubernetes API components</tspan>
          </text>
        </g>
        <g id="Graphic_11" filter="url(#Shadow)">
          <path d="M 805.0809 119.28922 L 904.2321 119.28922 C 909.2027 119.28922 913.2321 123.31865 913.2321 128.28922 L 913.2321 160.28922 C 913.2321 165.25978 909.2027 169.28922 904.2321 169.28922 L 805.0809 169.28922 C 800.1103 169.28922 796.0809 165.25978 796.0809 160.28922 L 796.0809 128.28922 C 796.0809 123.31865 800.1103 119.28922 805.0809 119.28922 Z" fill="#9a9a9a" fill-opacity=".8"/>
          <path d="M 805.0809 119.28922 L 904.2321 119.28922 C 909.2027 119.28922 913.2321 123.31865 913.2321 128.28922 L 913.2321 160.28922 C 913.2321 165.25978 909.2027 169.28922 904.2321 169.28922 L 805.0809 169.28922 C 800.1103 169.28922 796.0809 165.25978 796.0809 160.28922 L 796.0809 128.28922 C 796.0809 123.31865 800.1103 119.28922 805.0809 119.28922 Z" stroke="black" stroke-linecap="round" stroke-linejoin="round" stroke-width="1"/>
          <text transform="translate(801.0809 122.28922)" fill="black">
            <tspan font-family="Helvetica" font-size="18" fill="black" x="5.0512047" y="18">Prometheus </tspan>
            <tspan font-family="Helvetica" font-size="18" fill="black" x="23.556576" y="40">Thanos</tspan>
          </text>
        </g>
        <g id="Graphic_10" filter="url(#Shadow)">
          <path d="M 332.99813 60.009804 L 432.14936 60.009804 C 437.1199 60.009804 441.14936 64.03924 441.14936 69.0098 L 441.14936 101.0098 C 441.14936 105.98037 437.1199 110.0098 432.14936 110.0098 L 332.99813 110.0098 C 328.02756 110.0098 323.99813 105.98037 323.99813 101.0098 L 323.99813 69.0098 C 323.99813 64.03924 328.02756 60.009804 332.99813 60.009804 Z" fill="#203dd7" fill-opacity=".8"/>
          <path d="M 332.99813 60.009804 L 432.14936 60.009804 C 437.1199 60.009804 441.14936 64.03924 441.14936 69.0098 L 441.14936 101.0098 C 441.14936 105.98037 437.1199 110.0098 432.14936 110.0098 L 332.99813 110.0098 C 328.02756 110.0098 323.99813 105.98037 323.99813 101.0098 L 323.99813 69.0098 C 323.99813 64.03924 328.02756 60.009804 332.99813 60.009804 Z" stroke="black" stroke-linecap="round" stroke-linejoin="round" stroke-width="1"/>
          <text transform="translate(328.99813 74.0098)" fill="black">
            <tspan font-family="Helvetica" font-size="18" fill="black" x="24.061947" y="18">Ingress</tspan>
          </text>
        </g>
        <g id="Graphic_9" filter="url(#Shadow)">
          <path d="M 331.5809 118.05882 L 432.6475 118.05882 C 437.61804 118.05882 441.6475 122.08826 441.6475 127.05882 L 441.6475 159.05882 C 441.6475 164.02939 437.61804 168.05882 432.6475 168.05882 L 331.5809 168.05882 C 326.61032 168.05882 322.5809 164.02939 322.5809 159.05882 L 322.5809 127.05882 C 322.5809 122.08826 326.61032 118.05882 331.5809 118.05882 Z" fill="#203dd7" fill-opacity=".8"/>
          <path d="M 331.5809 118.05882 L 432.6475 118.05882 C 437.61804 118.05882 441.6475 122.08826 441.6475 127.05882 L 441.6475 159.05882 C 441.6475 164.02939 437.61804 168.05882 432.6475 168.05882 L 331.5809 168.05882 C 326.61032 168.05882 322.5809 164.02939 322.5809 159.05882 L 322.5809 127.05882 C 322.5809 122.08826 326.61032 118.05882 331.5809 118.05882 Z" stroke="black" stroke-linecap="round" stroke-linejoin="round" stroke-width="1"/>
          <text transform="translate(327.5809 132.05882)" fill="black">
            <tspan font-family="Helvetica" font-size="18" fill="black" x="22.514744" y="18">coredns</tspan>
          </text>
        </g>
        <g id="Graphic_8" filter="url(#Shadow)">
          <path d="M 204.58088 60.009804 L 305.64748 60.009804 C 310.61804 60.009804 314.64748 64.03924 314.64748 69.0098 L 314.64748 101.0098 C 314.64748 105.98037 310.61804 110.0098 305.64748 110.0098 L 204.58088 110.0098 C 199.61032 110.0098 195.58088 105.98037 195.58088 101.0098 L 195.58088 69.0098 C 195.58088 64.03924 199.61032 60.009804 204.58088 60.009804 Z" fill="#203dd7" fill-opacity=".8"/>
          <path d="M 204.58088 60.009804 L 305.64748 60.009804 C 310.61804 60.009804 314.64748 64.03924 314.64748 69.0098 L 314.64748 101.0098 C 314.64748 105.98037 310.61804 110.0098 305.64748 110.0098 L 204.58088 110.0098 C 199.61032 110.0098 195.58088 105.98037 195.58088 101.0098 L 195.58088 69.0098 C 195.58088 64.03924 199.61032 60.009804 204.58088 60.009804 Z" stroke="black" stroke-linecap="round" stroke-linejoin="round" stroke-width="1"/>
          <text transform="translate(200.58088 63.009804)" fill="black">
            <tspan font-family="Helvetica" font-size="18" fill="black" x="35.017185" y="18">kube</tspan>
            <tspan font-family="Helvetica" font-size="18" fill="black" x="32.525486" y="40">proxy</tspan>
          </text>
        </g>
        <g id="Graphic_7" filter="url(#Shadow)">
          <path d="M 204.58088 118.05882 L 305.64748 118.05882 C 310.61804 118.05882 314.64748 122.08826 314.64748 127.05882 L 314.64748 159.05882 C 314.64748 164.02939 310.61804 168.05882 305.64748 168.05882 L 204.58088 168.05882 C 199.61032 168.05882 195.58088 164.02939 195.58088 159.05882 L 195.58088 127.05882 C 195.58088 122.08826 199.61032 118.05882 204.58088 118.05882 Z" fill="#203dd7" fill-opacity=".8"/>
          <path d="M 204.58088 118.05882 L 305.64748 118.05882 C 310.61804 118.05882 314.64748 122.08826 314.64748 127.05882 L 314.64748 159.05882 C 314.64748 164.02939 310.61804 168.05882 305.64748 168.05882 L 204.58088 168.05882 C 199.61032 168.05882 195.58088 164.02939 195.58088 159.05882 L 195.58088 127.05882 C 195.58088 122.08826 199.61032 118.05882 204.58088 118.05882 Z" stroke="black" stroke-linecap="round" stroke-linejoin="round" stroke-width="1"/>
          <text transform="translate(200.58088 121.05882)" fill="black">
            <tspan font-family="Helvetica" font-size="18" fill="black" x="35.017185" y="18">kube</tspan>
            <tspan font-family="Helvetica" font-size="18" fill="black" x="17.518162" y="40">apiserver</tspan>
          </text>
        </g>
        <g id="Graphic_6" filter="url(#Shadow)">
          <path d="M 588.5809 118.05882 L 687.7321 118.05882 C 692.7027 118.05882 696.7321 122.08826 696.7321 127.05882 L 696.7321 159.05882 C 696.7321 164.02939 692.7027 168.05882 687.7321 168.05882 L 588.5809 168.05882 C 583.6103 168.05882 579.5809 164.02939 579.5809 159.05882 L 579.5809 127.05882 C 579.5809 122.08826 583.6103 118.05882 588.5809 118.05882 Z" fill="#203dd7" fill-opacity=".8"/>
          <path d="M 588.5809 118.05882 L 687.7321 118.05882 C 692.7027 118.05882 696.7321 122.08826 696.7321 127.05882 L 696.7321 159.05882 C 696.7321 164.02939 692.7027 168.05882 687.7321 168.05882 L 588.5809 168.05882 C 583.6103 168.05882 579.5809 164.02939 579.5809 159.05882 L 579.5809 127.05882 C 579.5809 122.08826 583.6103 118.05882 588.5809 118.05882 Z" stroke="black" stroke-linecap="round" stroke-linejoin="round" stroke-width="1"/>
          <text transform="translate(584.5809 132.05882)" fill="black">
            <tspan font-family="Helvetica" font-size="18" fill="black" x="32.574154" y="18">Helm</tspan>
          </text>
        </g>
        <g id="Graphic_5" filter="url(#Shadow)">
          <path d="M 805.0809 60.539216 L 904.3577 60.539216 C 909.3283 60.539216 913.3577 64.56865 913.3577 69.539216 L 913.3577 101.53922 C 913.3577 106.50978 909.3283 110.53922 904.3577 110.53922 L 805.0809 110.53922 C 800.1103 110.53922 796.0809 106.50978 796.0809 101.53922 L 796.0809 69.539216 C 796.0809 64.56865 800.1103 60.539216 805.0809 60.539216 Z" fill="#9a9a9a" fill-opacity=".8"/>
          <path d="M 805.0809 60.539216 L 904.3577 60.539216 C 909.3283 60.539216 913.3577 64.56865 913.3577 69.539216 L 913.3577 101.53922 C 913.3577 106.50978 909.3283 110.53922 904.3577 110.53922 L 805.0809 110.53922 C 800.1103 110.53922 796.0809 106.50978 796.0809 101.53922 L 796.0809 69.539216 C 796.0809 64.56865 800.1103 60.539216 805.0809 60.539216 Z" stroke="black" stroke-linecap="round" stroke-linejoin="round" stroke-width="1"/>
          <text transform="translate(801.0809 63.539216)" fill="black">
            <tspan font-family="Helvetica" font-size="18" fill="black" x="17.119862" y="18">Metal3.io </tspan>
            <tspan font-family="Helvetica" font-size="18" fill="black" x="34.13988" y="40">CRD</tspan>
          </text>
        </g>
        <g id="Graphic_4" filter="url(#Shadow)">
          <path d="M 460.0809 118.05882 L 561.1475 118.05882 C 566.11804 118.05882 570.1475 122.08826 570.1475 127.05882 L 570.1475 159.05882 C 570.1475 164.02939 566.11804 168.05882 561.1475 168.05882 L 460.0809 168.05882 C 455.1103 168.05882 451.0809 164.02939 451.0809 159.05882 L 451.0809 127.05882 C 451.0809 122.08826 455.1103 118.05882 460.0809 118.05882 Z" fill="#203dd7" fill-opacity=".8"/>
          <path d="M 460.0809 118.05882 L 561.1475 118.05882 C 566.11804 118.05882 570.1475 122.08826 570.1475 127.05882 L 570.1475 159.05882 C 570.1475 164.02939 566.11804 168.05882 561.1475 168.05882 L 460.0809 168.05882 C 455.1103 168.05882 451.0809 164.02939 451.0809 159.05882 L 451.0809 127.05882 C 451.0809 122.08826 455.1103 118.05882 460.0809 118.05882 Z" stroke="black" stroke-linecap="round" stroke-linejoin="round" stroke-width="1"/>
          <text transform="translate(456.0809 121.05882)" fill="black">
            <tspan font-family="Helvetica" font-size="18" fill="black" x="35.03037" y="18">OVN</tspan>
            <tspan font-family="Helvetica" font-size="18" fill="black" x="15.51865" y="40">Controller</tspan>
          </text>
        </g>
      </g>
      <g id="Graphic_2" filter="url(#Shadow)">
        <path d="M 460.5 60.009804 L 559.65124 60.009804 C 564.6218 60.009804 568.65124 64.03924 568.65124 69.0098 L 568.65124 101.0098 C 568.65124 105.98037 564.6218 110.0098 559.65124 110.0098 L 460.5 110.0098 C 455.52944 110.0098 451.5 105.98037 451.5 101.0098 L 451.5 69.0098 C 451.5 64.03924 455.52944 60.009804 460.5 60.009804 Z" fill="#203dd7" fill-opacity=".8"/>
        <path d="M 460.5 60.009804 L 559.65124 60.009804 C 564.6218 60.009804 568.65124 64.03924 568.65124 69.0098 L 568.65124 101.0098 C 568.65124 105.98037 564.6218 110.0098 559.65124 110.0098 L 460.5 110.0098 C 455.52944 110.0098 451.5 105.98037 451.5 101.0098 L 451.5 69.0098 C 451.5 64.03924 455.52944 60.009804 460.5 60.009804 Z" stroke="black" stroke-linecap="round" stroke-linejoin="round" stroke-width="1"/>
        <text transform="translate(456.5 74.0098)" fill="black">
          <tspan font-family="Helvetica" font-size="18" fill="black" x="24.070736" y="18">registry</tspan>
        </text>
      </g>
      <g id="Graphic_25" filter="url(#Shadow)">
        <path d="M 587.9 60.009804 L 687.05124 60.009804 C 692.0218 60.009804 696.05124 64.03924 696.05124 69.0098 L 696.05124 101.0098 C 696.05124 105.98037 692.0218 110.0098 687.05124 110.0098 L 587.9 110.0098 C 582.92945 110.0098 578.9 105.98037 578.9 101.0098 L 578.9 69.0098 C 578.9 64.03924 582.92945 60.009804 587.9 60.009804 Z" fill="#203dd7" fill-opacity=".8"/>
        <path d="M 587.9 60.009804 L 687.05124 60.009804 C 692.0218 60.009804 696.05124 64.03924 696.05124 69.0098 L 696.05124 101.0098 C 696.05124 105.98037 692.0218 110.0098 687.05124 110.0098 L 587.9 110.0098 C 582.92945 110.0098 578.9 105.98037 578.9 101.0098 L 578.9 69.0098 C 578.9 64.03924 582.92945 60.009804 587.9 60.009804 Z" stroke="black" stroke-linecap="round" stroke-linejoin="round" stroke-width="1"/>
        <text transform="translate(583.9 63.009804)" fill="black">
          <tspan font-family="Helvetica" font-size="18" fill="black" x="33.576107" y="18">Cert-</tspan>
          <tspan font-family="Helvetica" font-size="18" fill="black" x="18.054623" y="40">Manager</tspan>
        </text>
      </g>
    </g>
  </g>
</svg>
