<?xml version="1.0" encoding="UTF-8" standalone="no"?>
<svg
   width="13.3333in"
   height="13.3333in"
   viewBox="0 0 4000 4000"
   version="1.1"
   id="svg1"
   sodipodi:docname="ospc_flex_logo_white.svg"
   inkscape:version="1.3.2 (091e20e, 2023-11-25)"
   xmlns:inkscape="http://www.inkscape.org/namespaces/inkscape"
   xmlns:sodipodi="http://sodipodi.sourceforge.net/DTD/sodipodi-0.dtd"
   xmlns="http://www.w3.org/2000/svg"
   xmlns:svg="http://www.w3.org/2000/svg">
  <defs
     id="defs1" />
  <sodipodi:namedview
     id="namedview1"
     pagecolor="#ffffff"
     bordercolor="#000000"
     borderopacity="0.25"
     inkscape:showpageshadow="2"
     inkscape:pageopacity="0.0"
     inkscape:pagecheckerboard="0"
     inkscape:deskcolor="#d1d1d1"
     inkscape:document-units="in"
     inkscape:zoom="0.81700354"
     inkscape:cx="639.53211"
     inkscape:cy="257.64882"
     inkscape:window-width="1400"
     inkscape:window-height="690"
     inkscape:window-x="0"
     inkscape:window-y="25"
     inkscape:window-maximized="0"
     inkscape:current-layer="svg1" />
  <path
     id="Path"
     fill="none"
     stroke="#000000"
     stroke-width="1"
     d="m 476,1074 c 0,0 0,-627 0,-627 0,0 0.91,-12 0.91,-12 2.92,-39.95 16.02,-82.9 46.09,-110.91 30.35,-28.28 70.83,-38.96 111,-43.25 0,0 23,-1.84 23,-1.84 0,0 1095,0 1095,0 0,0 0,575 0,575 0,0 -298,0 -298,0 0,0 -149,0 -149,0 0,0 -15,1 -15,1 0,0 -7,0 -7,0 0,0 -10,0.91 -10,0.91 0,0 -33,2.93 -33,2.93 -25.75,2.75 -54.43,7.64 -79,15.83 -18.38,6.12 -35.13,12.69 -50,25.62 -36.52,31.75 -48.01,81.28 -50.04,127.71 0,0 -0.96,13 -0.96,13 0,0 0,33 0,33 z M 2258,279 c 0,0 732,0 732,0 0,0 244,0 244,0 0,0 122,0 122,0 0,0 18,1.85 18,1.85 40.66,4.85 77.67,20.23 104.56,52.15 22.86,27.13 33.89,65.27 37.6,100 0,0 1.84,22 1.84,22 0,0 0,619 0,619 0,0 -584,0 -584,0 0,-64.22 -9.74,-138.77 -66,-179.25 -29.92,-21.54 -78.65,-32.03 -115,-35.91 0,0 -35,-2.93 -35,-2.93 0,0 -10,-0.95 -10,-0.95 0,0 -14,0 -14,0 0,0 -12,-0.96 -12,-0.96 0,0 -424,0 -424,0 z m -1030,752 c 0,0 668,0 668,0 -6.75,13.11 -31.1,39.84 -41.99,51 0,0 -10.02,11 -10.02,11 0,0 -52.99,53 -52.99,53 -10.43,10.43 -25.36,24.11 -32.22,37 -2.96,5.56 -6.04,11.51 -5.67,18 0.37,6.58 5.92,15.57 9.56,21 9.23,13.76 23.57,29.24 35.33,41 0,0 24,23.96 24,23.96 0,0 11,10.04 11,10.04 0,0 99,99 99,99 10.99,10.99 27.03,27.29 39,36.58 6.34,4.92 15.79,11.02 24,11.38 18.06,0.79 39.04,-20 51,-31.96 0,0 100,-100 100,-100 0,0 46,-46 46,-46 0,0 28.28,-29 28.28,-29 7.86,-9.03 20.64,-24.39 20.64,-37 0,-6.89 -4,-14.31 -7.61,-20 -8.49,-13.34 -20.21,-23.9 -31.31,-35 0,0 -53.96,-54 -53.96,-54 0,0 -8.08,-9 -8.08,-9 -11.17,-11.68 -34.94,-37.36 -41.96,-51 0,0 668,0 668,0 0,0 0,660 0,660 -14.34,-8.25 -40.52,-32.03 -53,-43.96 0,0 -44.99,-44.04 -44.99,-44.04 0,0 -9.05,-10 -9.05,-10 0,0 -20.96,-21 -20.96,-21 -11.47,-11.47 -23.43,-24.01 -37,-33 -6.38,-4.22 -14.09,-8.45 -22,-7.9 -6.71,0.46 -15.47,5.86 -21,9.57 -14.28,9.57 -29.81,24.14 -42,36.33 0,0 -22.96,23 -22.96,23 0,0 -10.04,11 -10.04,11 0,0 -101,101 -101,101 -10.19,10.19 -30.52,30.73 -38,42 -4.51,6.81 -9.05,15.54 -7.68,24 2.97,18.29 25.11,38.43 37.68,51 0,0 94,94 94,94 0,0 44.99,45 44.99,45 0,0 9.05,10 9.05,10 0,0 19.96,19.07 19.96,19.07 8.85,8.04 25.46,21.85 38,21.85 6.83,0 15.39,-4.61 21,-8.26 13.76,-8.96 26.31,-22.97 38,-34.66 0,0 80,-79.09 80,-79.09 10.51,-9.74 35.09,-31.78 47,-37.91 0,0 0,660 0,660 0,0 -668,0 -668,0 2.52,-5.95 6.94,-10.93 10.88,-16 8.13,-10.46 16.94,-20.43 26.08,-30 0,0 8.08,-9 8.08,-9 0,0 59.96,-60 59.96,-60 10.92,-10.92 19.71,-19.28 28.85,-32 4.07,-5.68 9.07,-14.86 9.07,-22 0,-6.83 -4.95,-15.4 -8.62,-21 -8.98,-13.74 -23.65,-29.35 -35.3,-41 0,0 -31,-30.96 -31,-30.96 0,0 -11,-10.04 -11,-10.04 0,0 -95,-95 -95,-95 -11.74,-11.74 -28.57,-29.48 -42,-38.48 -5.99,-4.02 -15.56,-9.02 -23,-8.02 -18.02,2.44 -38.72,24.22 -51,36.5 0,0 -95,95 -95,95 0,0 -49,49 -49,49 0,0 -26.71,27 -26.71,27 -8.2,9.35 -21.1,24.77 -20.19,38 0.44,6.48 4.68,14.66 8.26,20 8.37,12.48 20.05,23.41 30.64,34 0,0 56.99,57 56.99,57 0,0 10.02,11 10.02,11 8.66,8.89 16.65,18.31 24.39,28 4.12,5.16 10.07,12.05 12.6,18 0,0 -668,0 -668,0 0,0 0,-660 0,-660 11.83,6.09 36.55,28.23 47,37.91 0,0 82,81.09 82,81.09 12.04,12.1 24.77,27.13 40,35.22 5.07,2.69 12.15,6.14 18,5.58 7.8,-0.74 16.76,-6.76 23,-11.23 13.67,-9.77 28.1,-22.69 40,-34.57 0,0 35.96,-37 35.96,-37 0,0 9.05,-10 9.05,-10 0,0 87.99,-88 87.99,-88 11.65,-11.65 29.1,-27.95 38.23,-41 4.83,-6.9 9.71,-16.32 8.47,-25 -2.41,-16.84 -25.01,-39.31 -36.7,-51 0,0 -95,-95 -95,-95 0,0 -45,-45 -45,-45 0,0 -29,-28.28 -29,-28.28 -9.71,-8.52 -23.33,-21.18 -37,-21.68 -9.32,-0.33 -18.81,5.14 -26,10.61 -12.97,9.89 -22.58,19.93 -34,31.35 0,0 -63,63.99 -63,63.99 0,0 -10,9.05 -10,9.05 -13.07,12.5 -38.89,36.27 -54,44.96 z m -744,194 c 0,0 576,0 576,0 0,0 0,305 0,305 0,0 -576,0 -576,0 z m 2459,0 c 0,0 575,0 575,0 0,0 0,305 0,305 0,0 -575,0 -575,0 z M 476,2019 c 0,0 575,0 575,0 0,0 0,306 0,306 0,0 -575,0 -575,0 z m 2458,0 c 0,0 576,0 576,0 0,0 0,306 0,306 0,0 -576,0 -576,0 z M 476,2476 c 0,0 584,0 584,0 0,60.86 8.93,133.74 60,174.33 23.97,19.06 54.33,28.74 84,34.67 20.18,4.03 40.5,6.66 61,8.09 0,0 10,0.91 10,0.91 0,0 19,1 19,1 0,0 21,0 21,0 0,0 17,1 17,1 0,0 404,0 404,0 0,0 0,575 0,575 0,0 -729,0 -729,0 0,0 -242,0 -242,0 0,0 -122,0 -122,0 0,0 -10,-0.91 -10,-0.91 -43.55,-3.05 -84.88,-16.81 -114.83,-50.09 -26.8,-29.78 -38.52,-73.86 -41.26,-113 0,0 -0.91,-12 -0.91,-12 z m 2458,0 c 0,0 584,0 584,0 0,0 0,627 0,627 0,0 -1.85,21 -1.85,21 -4.9,41.06 -19.22,80.58 -52.15,107.54 -33.82,27.68 -77.67,35.65 -120,38.55 0,0 -12,0.91 -12,0.91 0,0 -1090,0 -1090,0 0,0 0,-575 0,-575 0,0 289,0 289,0 0,0 145,0 145,0 0,0 15,-1 15,-1 0,0 14,0 14,0 0,0 11,-0.96 11,-0.96 34.96,-1.52 70.1,-6.22 104,-15.16 23.72,-6.25 47.54,-15.43 66,-32.05 34.21,-30.8 45.12,-81.71 47.04,-125.83 0,0 0.96,-13 0.96,-13 z m -814,1166 c 0,0 14.58,-78 14.58,-78 0,0 33.62,-177 33.62,-177 0,0 11,-58 11,-58 0,0 4.53,-18.01 4.53,-18.01 0,0 7.27,-0.99 7.27,-0.99 0,0 67,0 67,0 0,0 -3,15 -3,15 0,0 -6.61,35 -6.61,35 0,0 -16,84 -16,84 0,0 -7.19,38 -7.19,38 -1.17,6.03 -3.64,12.97 -2.2,19 0,0 22.92,-29 22.92,-29 0,0 47.67,-57 47.67,-57 0,0 13.33,-16 13.33,-16 0,0 8.08,-7.98 8.08,-7.98 0,0 8,-1.02 8,-1.02 0,0 74,0 74,0 0,0 -23.73,29 -23.73,29 0,0 -47.14,55 -47.14,55 0,0 -18.86,22 -18.86,22 0,0 -7.32,10 -7.32,10 0,0 3.63,12 3.63,12 0,0 10.02,25 10.02,25 0,0 26,65 26,65 0,0 13.4,34 13.4,34 0,0 -73,0 -73,0 0,0 -7.5,-1.02 -7.5,-1.02 0,0 -4.7,-8.98 -4.7,-8.98 0,0 -8.2,-21 -8.2,-21 0,0 -29.4,-75 -29.4,-75 0,0 -10.2,-26 -10.2,-26 0,0 -6.42,33 -6.42,33 0,0 -7.19,38 -7.19,38 0,0 -11.39,61 -11.39,61 z m -518,-202 c 2.58,-8.82 11.55,-19.55 18,-26 17.78,-17.78 43.57,-29.96 69,-30 0,0 14,0 14,0 0,0 -3.75,23 -3.75,23 0,0 -10.25,54 -10.25,54 0,0 -19,-0.99 -19,-0.99 -10.54,0.24 -24.7,3.35 -34,8.31 -40.67,21.7 -45.05,71.32 -52.61,111.68 0,0 -8,42 -8,42 0,0 -4.39,24 -4.39,24 0,0 -75,0 -75,0 0,0 5.39,-32 5.39,-32 0,0 10.81,-57 10.81,-57 0,0 31.8,-167 31.8,-167 0,0 66,0 66,0 0,0 -5.8,34 -5.8,34 z m 217,163 c -2.56,8.98 -8.49,16.49 -15,23 -17.98,17.97 -36.71,21.28 -61,21 -11.72,-0.14 -24.43,-4.28 -34,-11.04 -26.41,-18.66 -33.05,-51.73 -33,-81.96 0,0 0.91,-12 0.91,-12 4.44,-60.8 39.93,-122.99 98.09,-146.55 44.95,-18.2 117.47,-17.89 135.25,37.55 2.77,8.62 4.74,20.95 4.75,30 0.05,28.87 -4.61,44.46 -9.58,72 0,0 -20.42,107 -20.42,107 0,0 -72,0 -72,0 0,0 4.4,-24 4.4,-24 z m 547,-31 c 0,0 20,8.58 20,8.58 16.03,6.05 32.81,10.45 50,10.42 21.45,-0.03 36.72,-14.98 27,-31 -7.25,-11.94 -23.34,-18.35 -35,-24.86 -19.95,-11.13 -40.7,-28.35 -44.56,-52.14 -1.51,-9.28 -1.31,-18.77 0.56,-28 1.46,-7.17 3.84,-14.56 7.31,-21 21.54,-39.98 66.13,-49.06 107.69,-49 9.66,0.02 25.58,2.06 35,4.37 12.23,3.01 18.88,5.76 30,11.63 0,0 -11,58 -11,58 0,0 -17,-8.55 -17,-8.55 -14.44,-5.85 -30.41,-9.47 -46,-9.45 -11.6,0.02 -25.63,2.99 -30.42,15 -1.69,3.91 -1.8,7.17 0,11 6.89,13.61 29.46,22.41 42.42,29.87 16.43,9.45 33.15,23.58 39.25,42.13 3.23,9.81 2.86,14.95 2.75,25 -0.09,7.12 -2,17.3 -4.44,24 -21.3,58.61 -100.23,65.98 -152.56,53.77 -13.76,-3.22 -19.57,-6.41 -32,-11.77 0,0 3.39,-18 3.39,-18 z m 289,-146 c 0,0 11.09,-12.96 11.09,-12.96 10.29,-10.57 26.63,-20.87 40.91,-24.89 23.7,-6.65 52.31,-3.12 72,12.37 20.35,16.01 31.96,44.9 32,70.48 0,0 0,22 0,22 -0.01,8.53 -1.72,18.6 -3.4,27 -8.21,41.02 -28.55,78.05 -62.6,103.12 -17.6,12.96 -43.9,23.85 -66,23.88 0,0 -10,0 -10,0 -8.33,-0.1 -18.7,-2.46 -26,-6.51 -7.77,-4.31 -12.11,-9.26 -17,-16.49 0,0 -14.2,75 -14.2,75 0,0 -3,16 -3,16 0,0 -2.38,5.98 -2.38,5.98 0,0 -7.42,1.02 -7.42,1.02 0,0 -67,0 -67,0 0,0 7.2,-38 7.2,-38 0,0 12.19,-64 12.19,-64 0,0 43.61,-230 43.61,-230 0,0 67,0 67,0 z m 303,178 c -2.91,10.17 -11.8,20.56 -20,26.99 -23.5,18.42 -61.16,22.29 -87,6.55 -24.51,-14.93 -33.24,-43.6 -35.09,-70.54 -0.26,-3.88 -1.06,-5.71 -0.82,-10 1.84,-32.4 7.89,-62.2 23.61,-91 11.78,-21.6 26.22,-39.74 46.3,-54.26 7.74,-5.59 17.26,-11.01 26,-14.88 29.7,-13.13 77.56,-17.61 107,-1.97 15.4,8.18 26.13,21.7 31.64,38.11 2.68,7.96 4.35,17.62 4.36,26 0,0 0,19 0,19 -0.02,13.28 -9.1,57.51 -12.2,73 0,0 -13.2,69 -13.2,69 0,0 -2.8,15 -2.8,15 -0.39,1.88 -0.77,4.75 -2.38,5.98 -1.65,1.26 -5.38,1.02 -7.42,1.02 0,0 -63,0 -63,0 z m 519,-41 c 0,0 -8.2,46 -8.2,46 -0.79,4.13 -1.93,14.71 -4.38,17.61 -2.38,2.81 -12.62,6.44 -16.42,7.72 -16.34,5.51 -24.93,7.61 -42,10.09 -42.28,6.14 -95.46,3 -123.24,-34.42 -6.88,-9.27 -10.93,-18.09 -14.42,-29 -2.71,-8.51 -5.23,-22.11 -5.34,-31 0,0 0,-16 0,-16 0.02,-10.2 2.16,-23.07 4.63,-33 11.22,-45.09 39.51,-84.06 82.37,-103.69 43.58,-19.96 116.54,-19.51 139.69,30.69 6.97,15.11 6.49,24.96 6.31,41 -0.11,8.76 -2.86,18.19 -6.76,26 -15.5,30.99 -53.41,41.71 -85.24,46.13 0,0 -22,1.87 -22,1.87 0,0 -17,0 -17,0 -6.78,-0.08 -24.68,-2.07 -31,-4 0,0 0,4 0,4 0.11,22.54 15.82,37.78 37,42.76 23.73,5.59 55.59,-0.32 78,-9.21 z m -1365,7 c 0,0 -7.92,45 -7.92,45 -0.66,3.89 -2.29,15.82 -4.66,18.35 -2.78,2.96 -14.18,6.06 -18.42,7.23 -15.45,4.24 -38.94,6.6 -55,6.42 -20.67,-0.25 -43.53,-5.82 -61,-17.09 -26.07,-16.81 -41.64,-48.07 -42,-78.91 -0.29,-25.16 2.57,-48.72 12.86,-72 19.81,-44.82 57.8,-75.98 105.14,-87.87 10.41,-2.62 23.29,-5.11 34,-5.13 17.98,-0.03 27.92,-0.69 46,3 3.32,0.68 14.15,3.17 16,5.7 1.94,2.65 -0.92,12.92 -1.6,16.3 0,0 -8.4,45 -8.4,45 -16.83,-7.24 -25.36,-10.21 -44,-10 -32.38,0.38 -59.59,22.39 -72.69,51 -10.66,23.27 -14.03,56.51 5.69,75.99 5.13,5.05 9.19,7.9 16,10.31 4.94,1.75 9.76,2.64 15,2.7 28.81,0.33 39.29,-4.94 65,-16 z m 1128,64 c 0,0 -17,5.85 -17,5.85 -13.26,3.63 -26.34,5.3 -40,6.24 0,0 -10,0.91 -10,0.91 -15.24,0.17 -33.64,-1.83 -48,-7.05 -9.26,-3.37 -18.15,-7.88 -26,-13.85 -49.19,-37.41 -43.22,-112.16 -16.69,-161.1 37.01,-68.29 124.17,-94.4 195.69,-71 0,0 -8,42 -8,42 0,0 -4,20 -4,20 -17.1,-7.37 -23.92,-10.09 -43,-10 -26.41,0.13 -51.14,15.39 -65.64,37 -19.73,29.4 -27.85,83.18 12.64,99.55 10.24,4.14 16.31,3.57 27,3.45 12.1,-0.15 27.75,-4.75 39,-9.2 0,0 16,-6.8 16,-6.8 0,0 -6.2,33 -6.2,33 z m 103,-144 c 0,0 18,0 18,0 0,0 29,-2.59 29,-2.59 9.44,-1.49 21.64,-4.43 28.91,-10.88 9.92,-8.8 9.15,-24.21 -1.91,-31.68 -4.18,-2.82 -11,-4.3 -16,-4.67 -2.99,-0.21 -5.09,0.28 -8,0.69 -20.74,2.91 -36.19,15.34 -45.22,34.13 -2.4,5.01 -4.27,9.43 -4.78,15 z m -1528,-47.7 c -17.71,2.83 -29,13.26 -38.98,27.7 -15.15,21.95 -24.33,50.29 -24.02,77 0.19,15.84 5.96,37.59 25,38.9 14.56,1.01 28.79,-9.23 37.54,-19.9 17.89,-21.83 22.84,-53.75 26.73,-81 2.32,-16.28 2.77,-36.88 -17.27,-41.76 -3.54,-0.87 -5.37,-1.13 -9,-0.94 z m 1139,0 c -17.31,2.77 -28.11,12.67 -37.96,26.7 -10.61,15.09 -18.95,35.9 -22.59,54 0,0 -2.17,17 -2.17,17 -0.64,5.49 0.01,6.89 0.56,12 1.71,16.02 8.12,35.6 28.16,33.83 28.97,-2.56 45.5,-32.78 52.57,-57.83 0,0 5.63,-27 5.63,-27 0,0 3.79,-28 3.79,-28 0.41,-18.23 -8.22,-31.74 -27.99,-30.7 z m -250,4.27 c -39.79,2.14 -55.3,52.69 -60.75,85.43 -1.17,6.98 -2.33,16.99 -2.25,24 0.2,17.35 6.66,34.76 27,33.96 16.28,-0.64 30.24,-11.51 39.76,-23.96 14.33,-18.73 25.2,-49.33 25.24,-73 0,0 0,-12 0,-12 -0.15,-12.41 -5.69,-27.49 -18,-32.52 -3.46,-1.42 -7.3,-1.71 -11,-1.91 z M 2222,3501 c 0,0 -1,0 -1,0 0,0 1,1 1,1 z m 505,239 c 0,0 26,0 26,0 0,0 -8,47 -8,47 5.07,-4.82 10.42,-8.94 17,-11.54 13,-5.12 33.12,-4.13 40.59,9.54 3.6,6.6 3.49,13.74 3.41,21 0,0 -13,76 -13,76 0,0 -27,0 -27,0 0,0 3.58,-19 3.58,-19 0,0 7.42,-39 7.42,-39 1.46,-7.49 3.88,-18.47 -1.43,-24.89 -9.27,-11.22 -23.36,0.38 -29.36,8.89 -8.95,12.69 -10.95,28.1 -13.63,43 0,0 -5.58,31 -5.58,31 0,0 -27,0 -27,0 0,0 7.58,-40 7.58,-40 z m 358,0 c 0,0 26,0 26,0 0,0 -5.58,33 -5.58,33 0,0 -14.84,78 -14.84,78 0,0 -5.58,31 -5.58,31 0,0 -27,0 -27,0 0,0 7.58,-40 7.58,-40 z m -626,8 c 0,0 26,0 26,0 0,0 -5,27 -5,27 0,0 24,0 24,0 0,0 -4,21 -4,21 0,0 -15,0 -15,0 -2.2,0 -5.83,-0.21 -7.69,1.02 -2.24,1.49 -2.45,4.56 -2.92,6.98 0,0 -3.19,16 -3.19,16 -1.37,6.87 -5.49,26.11 -5.16,32 0.23,3.91 1.33,6.79 5,8.84 4.1,1.97 9.46,0.37 13.96,0 -0.33,4.19 -2.01,18 -4.58,20.58 -3.09,3.09 -13.14,2.63 -17.42,2.58 -15.71,-0.19 -23.98,-7.04 -24,-23 -0.02,-13.17 3.03,-26.12 5.6,-39 0,0 5.4,-26 5.4,-26 0,0 -14,0 -14,0 0,0 3,-21 3,-21 0,0 15,0 15,0 z m 134,103 c -1.21,4.82 -3.14,20.42 -5.73,23.37 -1.82,2.06 -6.66,3.98 -9.27,4.94 -8.3,3.02 -17.17,4.68 -26,4.69 -7.25,0.01 -12.88,0.43 -20,-1.49 -15.82,-4.27 -25.42,-16.55 -27.85,-32.51 0,0 0,-15 0,-15 0.13,-23.9 16.57,-49.54 38.85,-58.55 9.78,-3.95 14.8,-3.57 25,-3.45 10.98,0.13 22.3,4.87 27.6,15 1.76,3.36 3.04,8.21 3.31,12 2.13,29.3 -28.21,37.89 -51.91,38 -3.15,0.01 -13.42,-0.58 -15.53,1.02 -2.91,2.09 -1.1,8.32 0,10.98 4.15,9.38 12.9,12.96 22.53,13 9.13,0.04 15.55,-1.24 24,-4.87 5.15,-2.21 9.54,-5.8 15,-7.13 z m 95,4 c -0.18,3.9 -2.51,19.85 -4.74,22.35 -1.86,2.09 -6.57,3.48 -9.26,4.17 -8.98,2.31 -14.9,2.52 -24,2.48 -23.83,-0.11 -40.71,-15.89 -41,-40 -0.32,-27.55 11.46,-52.04 37,-64.63 11.53,-5.68 22.47,-6.51 35,-6.37 3.71,0.05 15.91,1.27 17.85,4.51 1.1,1.73 0.3,4.61 0,6.49 0,0 -2.85,15 -2.85,15 -6.75,-1.82 -11.57,-4.4 -19,-4.79 -11.98,-0.64 -23.35,6.72 -30.48,15.79 -12.85,16.32 -16.14,48.21 10.48,52.37 11.15,1.74 20.8,-4.49 31,-7.37 z m 174,-63 c 8.71,-18.42 45.11,-27.48 58.45,-9.99 5.15,6.77 5.64,14.85 5.55,22.99 0,0 -9,53 -9,53 0,0 -3,16 -3,16 -0.41,2.05 -0.85,5.65 -2.58,6.98 -1.65,1.26 -5.38,1.02 -7.42,1.02 0,0 -18,0 -18,0 0,0 6.6,-36 6.6,-36 0,0 4.62,-23 4.62,-23 0.98,-6.13 2.49,-14.08 0,-19.98 -5.21,-14.18 -19.37,-8.01 -27.13,0 -13.94,14.44 -15.9,38.98 -19.69,57.98 -0.74,3.71 -2.53,18.11 -4.98,19.98 -1.65,1.26 -5.38,1.02 -7.42,1.02 0,0 -18,0 -18,0 0,0 4.58,-25 4.58,-25 0,0 9.42,-50 9.42,-50 0,0 6,-33 6,-33 0,0 24,0 24,0 z m 131,-18.78 c 5.27,-0.46 10.69,-0.28 16,0 5.25,-0.15 9.14,0.6 14,2.65 31.62,13.35 29.85,54.98 14.54,80.13 -8.95,14.69 -24.35,25.47 -41.54,27.85 0,0 -14,0 -14,0 -22.28,-0.12 -38.9,-17.82 -39,-39.85 -0.03,-6.68 -0.4,-13.43 1.01,-20 5.51,-25.6 22.66,-45.63 48.99,-50.78 z m 172,0.24 c 7.83,-1.08 21.61,-1.03 29,1.63 32.81,11.8 31.58,54.71 16.55,79.91 -9.7,16.25 -27.13,28.77 -46.55,29 0,0 -9,0 -9,0 -24.5,-0.29 -39.73,-19.51 -40,-43 -0.36,-32.28 17.45,-60.31 50,-67.54 z m 134,95.54 c -4.27,4.26 -7.53,7.83 -13,10.63 -15.46,7.91 -38.02,6.71 -47.47,-9.63 -4.53,-7.82 -5.63,-17.14 -5.53,-26 0.33,-28.31 18.14,-59.11 46,-67.97 11.83,-3.77 15.97,-3.09 28,-3.03 13.59,0.06 26.29,5.77 29.76,20 0.91,3.72 1.35,7.16 1.2,11 -0.39,9.97 -4.67,28.53 -6.76,39 -4.84,24.2 -7.78,55.79 -27.2,72.82 -13.48,11.82 -30.36,11.21 -47,11.18 -6.73,-0.01 -11.54,-0.76 -18,-2.72 -1.75,-0.53 -4.9,-1.42 -5.98,-2.98 -1.14,-1.68 -0.37,-4.45 0,-6.3 0,0 2.98,-15 2.98,-15 0,0 12,3.85 12,3.85 14.92,3.98 30,3.93 40.67,-8.85 2.59,-3.11 4.88,-7.27 6.46,-11 1.83,-4.35 3.21,-10.31 3.87,-15 z m 57,-95 c 0,0 27,0 27,0 0,0 6.15,49 6.15,49 0,0 2.85,27 2.85,27 4.35,-4.35 7.36,-12.39 10.26,-18 0,0 19.49,-38 19.49,-38 2.04,-4.08 7.99,-17.77 11.63,-19.43 1.56,-0.71 4.85,-0.57 6.62,-0.57 0,0 20,0 20,0 -2,7.02 -6.58,13.61 -10.14,20 0,0 -19,34 -19,34 0,0 -31.44,56 -31.44,56 -5.07,8.95 -11.91,22.7 -18.59,29.99 -8.8,9.6 -21,13.98 -33.83,11.34 -2.62,-0.53 -8.45,-1.74 -10.12,-3.98 -1.09,-1.76 -0.43,-4.39 0,-6.35 0.67,-5.05 1.52,-10.15 3.12,-15 5.03,1.35 9.63,3.81 15,2.61 8.69,-1.95 19.31,-19.62 18.52,-27.61 0,0 -13.6,-75 -13.6,-75 -1.42,-8.36 -3.84,-17.64 -3.92,-26 z m -823,44 c 0,0 11,0 11,0 5.48,-0.01 7.59,-0.23 13,-1.26 4.14,-0.79 9.59,-2.47 12.79,-5.29 5.5,-4.85 5.41,-12.53 -0.83,-16.72 -11.25,-7.53 -33,4.48 -35.96,23.27 z m 466,-24.7 c -21.35,4.14 -29.23,28.51 -29,47.7 0.15,12.21 8.31,24.61 22,22.66 19.38,-2.76 29.66,-30.44 28.96,-47.66 -0.52,-12.9 -7.96,-23.78 -21.96,-22.7 z m 172,0.03 c -4.8,1.07 -8.04,2.22 -11.96,5.35 -10.23,8.17 -17.51,28.37 -16.94,41.32 0.56,12.59 8.35,26.1 22.9,23.53 16.42,-2.9 25.75,-22.5 27.85,-37.53 0,0 0,-11 0,-11 -0.02,-13.4 -7.8,-22.91 -21.85,-21.67 z m 122,-0.12 c -21.6,4.96 -32.24,29.47 -32,49.79 0.13,10.54 5.79,21.15 18,19.5 20.92,-2.83 27.26,-27.16 30.39,-44.5 1.93,-10.7 3.41,-23.87 -11.39,-24.79 -1.75,-0.24 -3.27,-0.07 -5,0 z m 166,42.32 c 3.05,-0.5 4.91,-0.59 8,-0.52 18.22,0.45 26.51,19.77 18.6,34.99 -5.48,10.53 -14.25,14.26 -25.6,13.99 -14.26,-0.35 -21.31,-10.52 -20.99,-23.99 0.3,-12.31 8.5,-21.07 19.99,-24.47 z m 6,3.85 c -10.62,1.42 -18.2,6.95 -21.07,17.62 -3.24,12.01 6.67,23.84 19.07,22.81 20.54,-1.7 29.82,-29.96 10,-38.84 -2.9,-1.3 -4.9,-1.54 -8,-1.59 z m -13,34.62 c 0,0 3.8,-19 3.8,-19 0.39,-2 1.16,-6.98 2.36,-8.43 1.62,-1.96 15.26,-4.17 17.39,4.43 1.62,6.53 -4.24,10.07 -5.22,13.09 -0.8,2.46 1.06,7.21 1.67,9.91 -6.79,-0.54 -7.07,-5.01 -8,-11 0,0 -5,0 -5,0 -0.83,6.23 0,10.44 -7,11 z m 8,-15.21 c 1.72,0.19 4.34,0.25 5.96,0 10.93,-3.4 -0.38,-14.79 -4.4,-7.48 -0.79,1.45 -1.32,5.91 -1.56,7.48 z"
     inkscape:label="Path"
     style="display:inline;fill:#f9f9f9;stroke:#f9f9f9" />
</svg>
