<svg viewBox="0 0 268 268" xmlns="http://www.w3.org/2000/svg"><path d="m133.93765 88.51806 6.9515-36.58771h-42.94735l-31.94181 167.9449h48.77388l13.17031-69.24572c7.76561-40.83239 31.19194-57.17188 64.53078-52.12442l9.52504-50.09431c-30.01406-2.73704-56.78578 14.43372-68.06235 40.10725zm-9.47187 128.54865c.15249-1.67745-1.08018-3.0372-2.75762-3.0372s-3.15158 1.35975-3.30407 3.0372c-.16521 1.53766.9658 3.02449 2.75762 3.02449 1.67744.01271 3.15158-1.34704 3.30407-3.02449zm-.43207-.03812c-.12708 1.44871-1.42328 2.63055-2.87199 2.63055-1.42328 0-2.45264-1.14372-2.32556-2.5543.12708-1.436 1.41058-2.63055 2.87199-2.63055 1.41058 0 2.45264 1.14372 2.32556 2.5543zm-2.09681.40665.48291 1.41058h-.47019l-.47019-1.37246h-.67353l-.25416 1.37246h-.44478l.67353-3.57094h1.16913c.53373 0 .94039.39395.9531.90227.0127.47019-.3177 1.08018-.9658 1.25809zm.0127-1.72828h-.81331l-.25416 1.33434h.73707c.39394 0 .73707-.30499.83872-.71165.07624-.3177-.17791-.62269-.50832-.62269z" fill="#eb0000"/></svg>
