<?xml version="1.0" encoding="UTF-8"?>
<svg version="1.1" xmlns="http://www.w3.org/2000/svg" width="750" height="252">
<path d="M0 0 C247.5 0 495 0 750 0 C750 83.16 750 166.32 750 252 C502.5 252 255 252 0 252 C0 168.84 0 85.68 0 0 Z " fill="#FEFEFE" transform="translate(0,0)"/>
<path d="M0 0 C4.29 0 8.58 0 13 0 C13 1.98 13 3.96 13 6 C13.94875 5.195625 14.8975 4.39125 15.875 3.5625 C20.93802505 -0.73006472 25.49457059 -0.51854872 32 0 C36.7344316 1.91391916 39.72684393 5.45368786 42 10 C43.03511596 22.44759702 42.35983104 32.06088205 34.25390625 42.1796875 C30.05962103 46.68223867 26.14422615 49.72405432 19.83984375 50.27734375 C10.66092641 50.5314666 10.66092641 50.5314666 8.10546875 48.4765625 C7.74066406 47.98929688 7.37585938 47.50203125 7 47 C6.51990738 49.06228466 6.04096456 51.12483701 5.5625 53.1875 C5.29566406 54.33605469 5.02882813 55.48460937 4.75390625 56.66796875 C4.12756437 59.43620514 3.55661881 62.21690597 3 65 C-1.95 65 -6.9 65 -12 65 C-8.60421849 43.21784885 -4.2878352 21.62017634 0 0 Z " fill="#040404" transform="translate(394,81)"/>
<path d="M0 0 C4.12981406 4.12981406 5.13686883 7.70501389 5.21484375 13.40625 C5.14674273 19.91527425 3.85927202 26.14117301 2.5625 32.5 C2.33240234 33.67820313 2.10230469 34.85640625 1.86523438 36.0703125 C0.15691964 44.68616071 0.15691964 44.68616071 -1 47 C-5.29 47 -9.58 47 -14 47 C-14.33 45.68 -14.66 44.36 -15 43 C-15.598125 43.639375 -16.19625 44.27875 -16.8125 44.9375 C-20.76182795 48.66115207 -25.08856293 48.39265029 -30.265625 48.3515625 C-34.59239113 47.795264 -36.13238632 46.23525646 -39 43 C-43.05572628 36.89536009 -41.70095065 26.78701526 -40.41796875 19.85546875 C-37.72119967 11.24797293 -31.79146294 3.67145208 -23.75 -0.5625 C-15.81755175 -3.89506702 -7.6650306 -4.19910372 0 0 Z " fill="#040404" transform="translate(479,83)"/>
<path d="M0 0 C0.72493652 -0.02320312 1.44987305 -0.04640625 2.19677734 -0.0703125 C6.05730195 -0.01360523 8.61267437 0.45974376 11.70703125 2.8515625 C16.68117209 8.14637509 16.64945183 13.04759656 16.5390625 20.03662109 C16.16578405 25.94874028 15.03270805 31.64975643 13.8125 37.4375 C13.57402344 38.61892578 13.33554687 39.80035156 13.08984375 41.01757812 C12.50858303 43.88900607 11.91215643 46.7573573 11.3125 49.625 C6.6925 49.625 2.0725 49.625 -2.6875 49.625 C-3.0175 48.305 -3.3475 46.985 -3.6875 45.625 C-4.43 46.45 -5.1725 47.275 -5.9375 48.125 C-9.90813293 51.45123427 -13.90545839 51.2719654 -18.90625 51.04296875 C-22.60949231 50.48644217 -24.3179789 49.52957425 -26.6875 46.625 C-30.71157183 39.78308918 -30.503044 33.36878448 -29.6875 25.625 C-27.16997308 15.99126364 -22.00204308 8.30076441 -13.8125 2.625 C-9.31897277 0.3433126 -4.95198156 0.10168775 0 0 Z " fill="#040404" transform="translate(244.6875,80.375)"/>
<path d="M0 0 C4.62 0 9.24 0 14 0 C12.92308399 8.78100747 11.63630996 17.26125172 9.5859375 25.87890625 C9.00060302 28.99678791 8.89532631 31.8359999 9 35 C10.22033215 33.57877254 11.43979226 32.15678772 12.6550293 30.73120117 C13.68112859 29.53018931 14.71260736 28.33375377 15.74926758 27.1418457 C18.36683089 24.09629515 20.44337629 21.32610292 22.1875 17.6875 C25.79147626 14.24370046 28.58952983 14.50796695 33.3125 14.5625 C35.88400968 14.65251817 38.43293918 14.80995907 41 15 C39.47147075 18.53675651 37.3583611 20.99564746 34.75 23.8125 C33.95335937 24.69164063 33.15671875 25.57078125 32.3359375 26.4765625 C30.92959268 27.99579118 29.50293776 29.49706224 28.0390625 30.9609375 C27.21535156 31.81558594 27.21535156 31.81558594 26.375 32.6875 C25.88773437 33.16574219 25.40046875 33.64398438 24.8984375 34.13671875 C23.13387397 37.79627006 24.49529696 41.51306973 25.74804688 45.20385742 C26.64935187 47.56928342 27.59437311 49.9111588 28.5625 52.25 C29.21425219 53.83665307 29.86159035 55.42512849 30.50390625 57.015625 C30.79080322 57.70946289 31.0777002 58.40330078 31.37329102 59.11816406 C32 61 32 61 32 64 C27.05 64 22.1 64 17 64 C15.49576526 60.37670441 13.99644193 56.75151244 12.5 53.125 C12.07074219 52.09246094 11.64148438 51.05992188 11.19921875 49.99609375 C10.79316406 49.00996094 10.38710938 48.02382812 9.96875 47.0078125 C9.59169922 46.09660645 9.21464844 45.18540039 8.82617188 44.24658203 C8 42 8 42 8 40 C7.34 40 6.68 40 6 40 C5.96261719 40.55945313 5.92523438 41.11890625 5.88671875 41.6953125 C5.263159 49.30029611 3.67776322 56.55948483 2 64 C-2.62 64 -7.24 64 -12 64 C-11.40395447 56.13843481 -10.29491778 48.56676158 -8.75 40.83984375 C-8.53182617 39.72815323 -8.31365234 38.61646271 -8.08886719 37.47108459 C-7.63090874 35.1436922 -7.170263 32.81682708 -6.70703125 30.49047852 C-5.99600953 26.91744708 -5.29424339 23.342687 -4.59375 19.76757812 C-4.14637139 17.49989378 -3.69847354 15.2323118 -3.25 12.96484375 C-3.03956055 11.89411118 -2.82912109 10.8233786 -2.61230469 9.72019958 C-2.41540039 8.73479691 -2.21849609 7.74939423 -2.015625 6.73413086 C-1.84321289 5.86574081 -1.67080078 4.99735077 -1.49316406 4.10264587 C-1 2 -1 2 0 0 Z " fill="#050505" transform="translate(314,66)"/>
<path d="M0 0 C2.44272869 4.88545739 2.30420612 9.6603612 1.5 15 C-1.27326229 20.17675628 -4.91986874 22.31275908 -10.38671875 24.3203125 C-16.67527704 25.69322234 -23.10364819 25.28569313 -29.5 25 C-28.50605066 29.25806009 -28.50605066 29.25806009 -25.66015625 32.35546875 C-17.78270866 34.70588259 -10.09099651 32.33569123 -2.5 30 C-2.83 33.63 -3.16 37.26 -3.5 41 C-11.88053067 45.9662404 -20.98299589 46.31939752 -30.5 45 C-36.3479379 43.08331185 -39.62251809 39.409666 -42.5 34 C-44.94204897 26.26134482 -44.23597131 17.70171895 -40.890625 10.38671875 C-36.09725271 2.15989159 -30.07780268 -3.0266592 -21 -5.75 C-12.19976643 -6.63002336 -6.96320411 -5.57056328 0 0 Z " fill="#050505" transform="translate(568.5,86)"/>
<path d="M0 0 C0.81146484 -0.01224609 1.62292969 -0.02449219 2.45898438 -0.03710938 C3.24466797 -0.03904297 4.03035156 -0.04097656 4.83984375 -0.04296875 C5.55390381 -0.04707764 6.26796387 -0.05118652 7.00366211 -0.05541992 C9.37386132 0.22423717 10.99957267 1.01635141 13.0625 2.1875 C12.92142253 3.64630109 12.77447585 5.10453551 12.625 6.5625 C12.54378906 7.37460938 12.46257812 8.18671875 12.37890625 9.0234375 C12.0625 11.1875 12.0625 11.1875 11.0625 13.1875 C9.9075 12.8575 8.7525 12.5275 7.5625 12.1875 C3.2717703 11.10908131 -0.52329973 10.95517367 -4.9375 11.1875 C-6.18613625 12.23785525 -6.18613625 12.23785525 -6.29296875 14.56640625 C-6.22594557 17.3376305 -6.22594557 17.3376305 -3.92578125 18.77734375 C-3.04277344 19.22207031 -2.15976562 19.66679688 -1.25 20.125 C3.4089993 22.7287528 6.33538952 24.55141218 9.0625 29.1875 C10.09405577 34.80037696 9.28025948 39.4163394 6.0625 44.1875 C0.55675061 49.40347311 -4.44447361 50.52029138 -11.875 50.4375 C-12.91043945 50.44910156 -12.91043945 50.44910156 -13.96679688 50.4609375 C-23.70096931 50.42403069 -23.70096931 50.42403069 -26.9375 47.1875 C-26.84765699 45.32977838 -26.69138139 43.47502015 -26.5 41.625 C-26.34724609 40.10712891 -26.34724609 40.10712891 -26.19140625 38.55859375 C-26.06572266 37.38490234 -26.06572266 37.38490234 -25.9375 36.1875 C-25.23625 36.41566406 -24.535 36.64382812 -23.8125 36.87890625 C-17.67075523 38.73978816 -13.2358242 39.49469936 -6.9375 38.1875 C-6.45078073 35.85768023 -6.45078073 35.85768023 -6.9375 33.1875 C-9.48204543 30.9968394 -9.48204543 30.9968394 -12.75 29.1875 C-17.06039669 26.63319085 -19.84601642 24.82171192 -21.9375 20.1875 C-22.82064206 15.61266503 -22.35976167 12.04826417 -20.3125 7.875 C-14.23315005 0.99573558 -8.62438611 0.0068177 0 0 Z " fill="#040404" transform="translate(374.9375,80.8125)"/>
<path d="M0 0 C0.71542969 0.00064453 1.43085938 0.00128906 2.16796875 0.00195312 C5.32659104 0.02852098 7.85930662 0.18226887 10.875 1.1875 C10.215 5.1475 9.555 9.1075 8.875 13.1875 C6.4 12.6925 6.4 12.6925 3.875 12.1875 C-1.38701225 11.8048082 -4.6621424 12.31143622 -9.125 15.1875 C-13.07622912 19.35824185 -14.92688869 22.96865333 -15.4375 28.6875 C-15.10424732 32.41993004 -14.3808678 34.23751903 -12.125 37.1875 C-7.64462957 39.42768522 -1.74733361 38.53558477 2.9375 37.1875 C4.3915625 36.6925 4.3915625 36.6925 5.875 36.1875 C5.67405835 38.14893041 5.43828747 40.10681791 5.1875 42.0625 C5.05988281 43.15304688 4.93226563 44.24359375 4.80078125 45.3671875 C3.875 48.1875 3.875 48.1875 1.8125 49.54296875 C-5.67333938 51.1854734 -16.05125416 52.08980821 -22.9375 48.125 C-27.26941617 44.7158014 -29.39817336 40.36797992 -31.125 35.1875 C-32.02668602 25.58107589 -29.98785156 17.60701654 -23.93359375 10.04296875 C-17.12150193 3.05432163 -9.6725562 -0.16737574 0 0 Z " fill="#030303" transform="translate(294.125,80.8125)"/>
<path d="M0 0 C0.680625 -0.00386719 1.36125 -0.00773437 2.0625 -0.01171875 C7.12155878 -0.00172061 7.12155878 -0.00172061 9.375 1.125 C9.045 5.085 8.715 9.045 8.375 13.125 C7.055 12.795 5.735 12.465 4.375 12.125 C-0.30768083 11.60564813 -3.68428582 11.64576825 -7.9375 13.8125 C-11.53925097 16.91168107 -14.11095612 19.58286837 -15.625 24.125 C-15.97078461 29.48466151 -16.07662946 32.74408568 -12.625 37.125 C-7.29524263 39.78987869 -0.96090657 37.90363552 4.375 36.125 C4.28766424 37.73017097 4.17947776 39.33421662 4.0625 40.9375 C3.97548828 42.27748047 3.97548828 42.27748047 3.88671875 43.64453125 C3.3040429 46.46895234 2.61414391 47.37238613 0.375 49.125 C-2.83506265 50.73003133 -6.28931131 50.39282728 -9.8125 50.4375 C-10.55564453 50.46650391 -11.29878906 50.49550781 -12.06445312 50.52539062 C-17.74486688 50.5901105 -20.94455512 49.35757999 -25.625 46.125 C-31.42266298 39.85725624 -32.08176102 35.07864017 -31.93359375 26.66796875 C-31.19749949 18.21686124 -26.87204601 11.72537913 -20.625 6.125 C-13.73734913 1.43627821 -8.28638239 -0.04762289 0 0 Z " fill="#030303" transform="translate(517.625,80.875)"/>
<path d="M0 0 C-0.30836232 2.12560437 -0.62181614 4.25047065 -0.9375 6.375 C-1.11152344 7.55835937 -1.28554687 8.74171875 -1.46484375 9.9609375 C-2 13 -2 13 -3 15 C-5.109375 15.4921875 -5.109375 15.4921875 -7.75 15.875 C-12.2373508 16.73795208 -14.98220607 17.36089556 -18 21 C-21.72121826 28.40198849 -23.01495605 36.50610713 -24.38671875 44.59375 C-25 48 -25 48 -26 51 C-30.62 51 -35.24 51 -40 51 C-39.31945947 42.9176254 -38.02906748 35.03669345 -36.5625 27.0625 C-36.23668945 25.26522461 -36.23668945 25.26522461 -35.90429688 23.43164062 C-35.47690247 21.07647924 -35.04680793 18.72180595 -34.61376953 16.36767578 C-34.20941051 14.14900898 -33.81431712 11.92863045 -33.42919922 9.70654297 C-33.25533691 8.70896973 -33.08147461 7.71139648 -32.90234375 6.68359375 C-32.75144287 5.8011499 -32.60054199 4.91870605 -32.44506836 4.00952148 C-32 2 -32 2 -31 1 C-28.81360547 0.92741054 -26.62499611 0.91626217 -24.4375 0.9375 C-22.64119141 0.95103516 -22.64119141 0.95103516 -20.80859375 0.96484375 C-19.88175781 0.97644531 -18.95492187 0.98804687 -18 1 C-18.33 3.64 -18.66 6.28 -19 9 C-18.319375 8.2575 -17.63875 7.515 -16.9375 6.75 C-11.9153741 1.78446143 -7.27458783 -0.5938439 0 0 Z " fill="#060606" transform="translate(220,80)"/>
<path d="M0 0 C1.68359375 1.28125 1.68359375 1.28125 3 3 C3.78821565 11.27626433 2.50276165 20.13209564 -2.0625 27.1875 C-5.15006596 30.07586816 -6.99561792 30.1154408 -11.125 30.0625 C-12.03507813 30.05347656 -12.94515625 30.04445312 -13.8828125 30.03515625 C-14.93082031 30.01775391 -14.93082031 30.01775391 -16 30 C-16.33 29.34 -16.66 28.68 -17 28 C-16.67 27.34 -16.34 26.68 -16 26 C-13.71484375 25.3671875 -13.71484375 25.3671875 -10.9375 24.875 C-10.01839844 24.70742187 -9.09929688 24.53984375 -8.15234375 24.3671875 C-7.44207031 24.24601562 -6.73179687 24.12484375 -6 24 C-6 23.01 -6 22.02 -6 21 C-7.093125 21.226875 -8.18625 21.45375 -9.3125 21.6875 C-13 22 -13 22 -14.875 20.6875 C-17.31817396 17.02273906 -17.36726379 14.40716549 -17 10 C-13.32272137 2.78687653 -8.25030617 -1.08966308 0 0 Z " fill="#0D0D0D" transform="translate(536,156)"/>
<path d="M0 0 C1.6171875 1.14453125 1.6171875 1.14453125 3 3 C4.23557009 10.43401338 3.40672608 16.77912092 -0.515625 23.1953125 C-2.18929806 25.23014658 -3.75470566 26.6179533 -6 28 C-9.75 28.1875 -9.75 28.1875 -13 28 C-15.7969531 23.25168427 -15.03443435 19.24713074 -14 14 C-12.58561224 9.09865628 -11.05769406 5.13905514 -7.5625 1.375 C-4.68437346 -0.16936058 -3.20904527 -0.59113992 0 0 Z " fill="#F7F7F7" transform="translate(418,92)"/>
<path d="M0 0 C3.3125 0.5 3.3125 0.5 5.3125 2.5 C6.57302994 10.09592069 4.49798084 18.11602966 0.375 24.5 C-1.66118832 26.47448565 -2.97812145 27.6789762 -5.6875 28.5 C-8.3125 28.4375 -8.3125 28.4375 -10.6875 27.5 C-13.07303662 23.63770261 -13.13156758 19.94067585 -12.6875 15.5 C-10.55245626 8.88713478 -7.47846821 1.01402959 0 0 Z " fill="#F6F6F6" transform="translate(464.6875,91.5)"/>
<path d="M0 0 C2.9375 2 2.9375 2 5 5 C5.69682031 9.87774216 5.54501161 11.9301624 3.3125 16.3125 C-0.07030465 20.24386756 -2.35758067 21.73603975 -7.5 22.5625 C-11 22 -11 22 -14 19.5625 C-15.98013468 16.80468867 -16.29329369 14.80371042 -16.0625 11.4375 C-15.1914388 6.55627028 -13.22324796 3.60993818 -9.1875 0.6875 C-5.90185996 -0.34512973 -3.42370711 -0.42045526 0 0 Z " fill="#111111" transform="translate(478,156)"/>
<path d="M0 0 C2.4499368 2.4499368 2.29666876 3.1904467 2.3125 6.5625 C2.15882486 13.21855472 0.68002749 19.0907692 -3.3125 24.5 C-6.35062848 27.32616603 -7.86717385 28.08984405 -12 28 C-13.64453125 26.875 -13.64453125 26.875 -15 25 C-16.46274386 16.91522192 -15.09427213 10.69777846 -10.60546875 3.92578125 C-7.37341031 0.0488839 -4.85595004 -0.41327234 0 0 Z " fill="#F8F8F8" transform="translate(245,92)"/>
<path d="M0 0 C2.875 1.375 2.875 1.375 5 4 C5.99966413 9.07655525 5.56439392 12.91013587 3.1875 17.5 C0.19589532 20.91897678 -1.31094819 21.92220383 -5.875 22.4375 C-9.21647704 22.33269352 -10.05818326 21.96121116 -13 20 C-15.10204676 16.84692986 -15.67965817 14.7873286 -15.421875 10.9921875 C-14.48895436 6.58672894 -12.07492941 3.84862849 -8.625 1.125 C-5.41719802 -0.24977228 -3.45898719 -0.50443563 0 0 Z " fill="#0F0F0F" transform="translate(511,156)"/>
<path d="M0 0 C1.66611905 -0.042721 3.33382885 -0.04063832 5 0 C6.64303173 1.64303173 6.31862853 3.68007295 6.5 5.9375 C6.75214943 9.60557465 6.75214943 9.60557465 8 13 C11.465 6.565 11.465 6.565 15 0 C16.65 0 18.3 0 20 0 C18.50829734 4.9723422 16.39542583 9.41845739 14 14 C16.01822917 13.90234375 18.03645833 13.8046875 20.0546875 13.70703125 C20.69664062 13.80371094 21.33859375 13.90039062 22 14 C22.99 15.485 22.99 15.485 24 17 C24.99 16.34 25.98 15.68 27 15 C27 16.98 27 18.96 27 21 C26.21625 20.814375 25.4325 20.62875 24.625 20.4375 C22.02910225 19.74037734 22.02910225 19.74037734 20 21 C20 19.35 20 17.7 20 16 C19.01 16 18.02 16 17 16 C16.67 17.65 16.34 19.3 16 21 C15.67 19.68 15.34 18.36 15 17 C13.35 17.33 11.7 17.66 10 18 C9.7525 18.886875 9.505 19.77375 9.25 20.6875 C7.90380809 24.25490855 6.77113551 26.3786556 4 29 C0.25 29.8125 0.25 29.8125 -3 30 C-3.33 29.34 -3.66 28.68 -4 28 C-3.01 26.515 -3.01 26.515 -2 25 C-1.01 25 -0.02 25 1 25 C3.5627546 21.15586809 2.93740653 19.78774866 2.1875 15.3125 C1.98769531 14.06855469 1.78789063 12.82460937 1.58203125 11.54296875 C1.38996094 10.37378906 1.19789063 9.20460937 1 8 C0.64140541 5.33560365 0.32031671 2.66930595 0 0 Z " fill="#131313" transform="translate(543,156)"/>
<path d="M0 0 C1.65 0 3.3 0 5 0 C4.67 2.64 4.34 5.28 4 8 C4.99 7.34 5.98 6.68 7 6 C10.0625 5.75 10.0625 5.75 13 6 C15 8 15 8 15.265625 10.03125 C15.22637221 16.23319113 14.43724047 21.96872301 13 28 C11.35 28 9.7 28 8 28 C8.33 22.39 8.66 16.78 9 11 C4.79819816 11.5739739 4.79819816 11.5739739 3 15 C2.39896659 17.21389829 1.86324191 19.44602579 1.375 21.6875 C1.11460937 22.86699219 0.85421875 24.04648438 0.5859375 25.26171875 C0.39257812 26.16535156 0.19921875 27.06898438 0 28 C-1.65 28 -3.3 28 -5 28 C-4.30756029 22.18084324 -3.46181759 16.4054285 -2.5 10.625 C-2.30470703 9.41650391 -2.30470703 9.41650391 -2.10546875 8.18359375 C-1.11977209 2.23954417 -1.11977209 2.23954417 0 0 Z " fill="#131313" transform="translate(420,150)"/>
<path d="M0 0 C2.375 1.125 2.375 1.125 4 3 C4.625 5.9375 4.625 5.9375 4 9 C0.65544437 12.09983205 -1.30877061 12.95540456 -5.875 13.25 C-6.90625 13.1675 -7.9375 13.085 -9 13 C-8.34 14.32 -7.68 15.64 -7 17 C-3.4780279 17.08004482 -0.38018531 17.04005702 3 16 C1.25 20.875 1.25 20.875 -1 22 C-5.20092625 22.49470367 -8.78821114 22.65022817 -12.5625 20.625 C-14.83930765 16.46735124 -14.9623861 12.6137922 -14 8 C-10.49179382 2.05316269 -6.99159176 -0.55932734 0 0 Z " fill="#101010" transform="translate(391,156)"/>
<path d="M0 0 C1.65 0 3.3 0 5 0 C5.33 0.66 5.66 1.32 6 2 C6.99 1.34 7.98 0.68 9 0 C11.79131136 -0.34891392 13.32756367 -0.46504943 15.671875 1.15625 C17.59269086 3.82279437 17.1223726 5.59471506 16.75 8.8125 C16.63269531 9.87597656 16.51539063 10.93945312 16.39453125 12.03515625 C15.99497394 15.03777012 15.57827568 18.02601081 15 21 C13.35 21 11.7 21 10 21 C9.88478735 15.58500559 10.31798844 10.37084106 11 5 C8.35379045 5.36499442 7.20579772 5.78700656 5.32421875 7.734375 C3.83921758 10.27508496 3.30734539 12.35705771 2.8125 15.25 C2.65394531 16.14203125 2.49539063 17.0340625 2.33203125 17.953125 C2.22246094 18.62859375 2.11289062 19.3040625 2 20 C0.35 20.33 -1.3 20.66 -3 21 C-3.15639125 15.93683317 -2.62766071 11.49601562 -1.5 6.5625 C-1.2215625 5.32628906 -0.943125 4.09007812 -0.65625 2.81640625 C-0.4396875 1.88699219 -0.223125 0.95757812 0 0 Z " fill="#161616" transform="translate(442,156)"/>
<path d="M0 0 C0.66 0.33 1.32 0.66 2 1 C1.4375 2.9375 1.4375 2.9375 0 5 C-2.32716 5.37400786 -4.66117862 5.70764733 -7 6 C-9.4294516 9.6441774 -9.16179575 11.71241272 -9 16 C-6.23735711 16.59732819 -3.83967231 17 -1 17 C-1 18.32 -1 19.64 -1 21 C-4.19233485 22.59616743 -7.53461497 22.51466114 -11 22 C-14.49188461 19.31393491 -15.80673688 17.20789453 -16.5 12.875 C-15.80425752 7.48299576 -13.02280459 4.53179846 -9 1 C-5.77390955 -0.07536348 -3.37822416 -0.14375422 0 0 Z " fill="#141414" transform="translate(413,156)"/>
<path d="M0 0 C1.65 0 3.3 0 5 0 C4.67 1.98 4.34 3.96 4 6 C5.32 6 6.64 6 8 6 C8 7.32 8 8.64 8 10 C6.35 10.33 4.7 10.66 3 11 C2.67 14.63 2.34 18.26 2 22 C2.66 22.33 3.32 22.66 4 23 C4 24.32 4 25.64 4 27 C1.125 27.125 1.125 27.125 -2 27 C-4 25 -4 25 -4.265625 23.08203125 C-4.23066097 18.0035053 -3.63820116 13.81221591 -2 9 C-2.66 9 -3.32 9 -4 9 C-4 8.01 -4 7.02 -4 6 C-3.01 6 -2.02 6 -1 6 C-0.67 4.02 -0.34 2.04 0 0 Z " fill="#101010" transform="translate(368,151)"/>
<path d="M0 0 C1.65 0 3.3 0 5 0 C4.55108327 3.37632159 4.08918307 6.75074614 3.625 10.125 C3.49867188 11.07632813 3.37234375 12.02765625 3.2421875 13.0078125 C2.56589627 17.87710938 1.78640169 22.38642347 0 27 C-1.65 27 -3.3 27 -5 27 C-4.54625638 23.99924219 -4.08714004 20.99946658 -3.625 18 C-3.49867188 17.16082031 -3.37234375 16.32164062 -3.2421875 15.45703125 C-2.42882079 10.21081598 -1.36582004 5.13073268 0 0 Z " fill="#0D0D0D" transform="translate(490,150)"/>
<path d="M0 0 C0.99 0.66 1.98 1.32 3 2 C2.6875 4.375 2.6875 4.375 2 7 C-2.87793583 10.25195722 -7.22391379 10.11325659 -13 10 C-12.78233948 6.19094094 -12.00605451 5.00633611 -9.3125 2.1875 C-5.70636445 -0.19391027 -4.21220897 -0.65523251 0 0 Z " fill="#F2F2F2" transform="translate(554,91)"/>
<path d="M0 0 C2.79646999 -0.43022615 4.32048201 -0.47043553 6.67578125 1.16015625 C8.59296881 3.82385932 8.12184978 5.59923286 7.75 8.8125 C7.63269531 9.87597656 7.51539063 10.93945312 7.39453125 12.03515625 C6.99497394 15.03777012 6.57827568 18.02601081 6 21 C4.35 21 2.7 21 1 21 C0.88478735 15.58500559 1.31798844 10.37084106 2 5 C0.68 4.34 -0.64 3.68 -2 3 C-1.34 2.01 -0.68 1.02 0 0 Z " fill="#0C0C0C" transform="translate(451,156)"/>
<path d="M0 0 C0.7425 0.2475 1.485 0.495 2.25 0.75 C3.25298661 4.57958525 3.41842191 6.34425632 1.875 10.0625 C0.25 12.75 0.25 12.75 -0.75 13.75 C-3.25 13.875 -3.25 13.875 -5.75 13.75 C-7.31941198 12.18058802 -6.9949847 10.60865006 -7.0625 8.4375 C-7.02028048 5.12854482 -6.89893919 3.98168318 -5.0625 1.125 C-2.75 -0.25 -2.75 -0.25 0 0 Z " fill="#F0F0F0" transform="translate(474.75,160.25)"/>
<path d="M0 0 C4.875 0.875 4.875 0.875 6 2 C6.45819936 10.09485531 6.45819936 10.09485531 4 13 C0.875 13.75 0.875 13.75 -2 14 C-4 11 -4 11 -3.8125 7.5625 C-3.03703201 4.16237111 -2.32086189 2.52267597 0 0 Z " fill="#F1F1F1" transform="translate(505,160)"/>
<path d="M0 0 C1.65 0.33 3.3 0.66 5 1 C4.65598492 9.04995287 4.65598492 9.04995287 2.1875 12.625 C0 14 0 14 -2.25 13.75 C-3.11625 13.37875 -3.11625 13.37875 -4 13 C-4.49230769 5.73846154 -4.49230769 5.73846154 -2 2 C-1.34 1.34 -0.68 0.68 0 0 Z " fill="#F4F4F4" transform="translate(529,160)"/>
<path d="M0 0 C1.45945288 0.08708669 2.91765868 0.19526907 4.375 0.3125 C5.59316406 0.39951172 5.59316406 0.39951172 6.8359375 0.48828125 C9 1 9 1 11 4 C11.99 3.34 12.98 2.68 14 2 C14 3.98 14 5.96 14 8 C13.21625 7.814375 12.4325 7.62875 11.625 7.4375 C9.02910225 6.74037734 9.02910225 6.74037734 7 8 C7 6.35 7 4.7 7 3 C6.01 3 5.02 3 4 3 C3.67 4.65 3.34 6.3 3 8 C2.67 6.68 2.34 5.36 2 4 C0.68 4.33 -0.64 4.66 -2 5 C-1.34 3.35 -0.68 1.7 0 0 Z " fill="#959595" transform="translate(556,169)"/>
<path d="M0 0 C0.33 0 0.66 0 1 0 C1 3.3 1 6.6 1 10 C1.66 10 2.32 10 3 10 C2.67 14.29 2.34 18.58 2 23 C1.67 23 1.34 23 1 23 C0.855625 22.05125 0.71125 21.1025 0.5625 20.125 C0.17064601 17.1065506 0.17064601 17.1065506 -1 15 C-0.91089842 12.44192238 -0.76705754 9.9237399 -0.5625 7.375 C-0.51029297 6.66859375 -0.45808594 5.9621875 -0.40429688 5.234375 C-0.27458793 3.48920013 -0.13795046 1.74454275 0 0 Z " fill="#BBBBBB" transform="translate(436,94)"/>
<path d="M0 0 C1.65 0.33 3.3 0.66 5 1 C5 1.99 5 2.98 5 4 C2.29120665 5.35439668 -0.00933268 5.06501451 -3 5 C-2.01 3.35 -1.02 1.7 0 0 Z " fill="#ECECEC" transform="translate(385,160)"/>
<path d="M0 0 C1.485 0.99 1.485 0.99 3 2 C3.99 1.34 4.98 0.68 6 0 C6 1.98 6 3.96 6 6 C5.21625 5.814375 4.4325 5.62875 3.625 5.4375 C1.02910225 4.74037734 1.02910225 4.74037734 -1 6 C-1.042721 4.33388095 -1.04063832 2.66617115 -1 1 C-0.67 0.67 -0.34 0.34 0 0 Z " fill="#3B3B3B" transform="translate(564,171)"/>
</svg>
